<?xml version="1.0" encoding="UTF-8" standalone="no"?>
<!-- Generator: Adobe Illustrator 19.1.0, SVG Export Plug-In . SVG Version: 6.00 Build 0)  -->

<svg
   xmlns:dc="http://purl.org/dc/elements/1.1/"
   xmlns:cc="http://creativecommons.org/ns#"
   xmlns:rdf="http://www.w3.org/1999/02/22-rdf-syntax-ns#"
   xmlns:svg="http://www.w3.org/2000/svg"
   xmlns="http://www.w3.org/2000/svg"
   xmlns:sodipodi="http://sodipodi.sourceforge.net/DTD/sodipodi-0.dtd"
   xmlns:inkscape="http://www.inkscape.org/namespaces/inkscape"
   version="1.1"
   id="Calque_1"
   x="0px"
   y="0px"
   viewBox="0 0 12 12"
   style="enable-background:new 0 0 12 12;"
   xml:space="preserve"
   sodipodi:docname="close.svg"
   inkscape:version="0.92.4 (5da689c313, 2019-01-14)"><metadata
   id="metadata835"><rdf:RDF><cc:Work
       rdf:about=""><dc:format>image/svg+xml</dc:format><dc:type
         rdf:resource="http://purl.org/dc/dcmitype/StillImage" /></cc:Work></rdf:RDF></metadata><defs
   id="defs833" /><sodipodi:namedview
   pagecolor="#ffffff"
   bordercolor="#666666"
   borderopacity="1"
   objecttolerance="10"
   gridtolerance="10"
   guidetolerance="10"
   inkscape:pageopacity="0"
   inkscape:pageshadow="2"
   inkscape:window-width="1920"
   inkscape:window-height="1017"
   id="namedview831"
   showgrid="false"
   inkscape:zoom="70.833333"
   inkscape:cx="6"
   inkscape:cy="6"
   inkscape:window-x="-8"
   inkscape:window-y="1072"
   inkscape:window-maximized="1"
   inkscape:current-layer="Calque_1" />
<style
   type="text/css"
   id="style826">
	.st0{fill-rule:evenodd;clip-rule:evenodd;fill:{%color.white%};}
</style>
<path
   class="st0"
   d="M7.3,6l1.5-1.5C9,4.3,9,4,8.9,3.8L8.2,3.1C8,2.9,7.7,2.9,7.5,3.1L6,4.6L4.5,3.1C4.3,2.9,4,2.9,3.8,3.1L3.1,3.8  C3,4,3,4.3,3.1,4.5L4.7,6L3.1,7.5C3,7.7,3,8,3.1,8.2l0.7,0.7c0.2,0.2,0.5,0.2,0.7,0L6,7.4l1.5,1.5c0.2,0.2,0.5,0.2,0.7,0l0.7-0.7  C9,8,9,7.7,8.9,7.5L7.3,6z"
   id="path828"
   style="fill:#f5f7fa;fill-opacity:1" />
</svg>